<svg width="23" height="23" viewBox="0 0 23 23" fill="none" xmlns="http://www.w3.org/2000/svg">
<g clip-path="url(#clip0_1_56)">
<path d="M2.51697 23.0001C1.1747 23.0001 0.0866699 21.882 0.0866699 20.5026V2.49762C0.0866699 1.11823 1.1747 0.00012207 2.51697 0.00012207C3.85924 0.00012207 4.94726 1.11823 4.94726 2.49762V20.5026C4.94726 21.882 3.85924 23.0001 2.51697 23.0001Z" fill="#A7A7A7"/>
<path d="M11.1165 23.0001C9.77421 23.0001 8.68618 21.882 8.68618 20.5026V2.49762C8.68618 1.11823 9.77421 0.00012207 11.1165 0.00012207C12.4588 0.00012207 13.5468 1.11823 13.5468 2.49762V20.5026C13.5468 21.882 12.4588 23.0001 11.1165 23.0001Z" fill="#A7A7A7"/>
<path d="M19.716 23.0001C18.3737 23.0001 17.2857 21.882 17.2857 20.5026V2.49762C17.2857 1.11823 18.3737 0.00012207 19.716 0.00012207C21.0583 0.00012207 22.1463 1.11823 22.1463 2.49762V20.5026C22.1463 21.882 21.0583 23.0001 19.716 23.0001Z" fill="#A7A7A7"/>
</g>
<defs>
<clipPath id="clip0_1_56">
<rect width="22.0596" height="23" fill="white" transform="translate(0.0866699 0.00012207)"/>
</clipPath>
</defs>
</svg>
