<svg width="23" height="22" viewBox="0 0 23 22" fill="none" xmlns="http://www.w3.org/2000/svg">
<g clip-path="url(#clip0_1_91)">
<path d="M11.1153 0C5.03385 0 0.0867195 4.93376 0.0867195 10.9987C0.0867195 17.0637 5.03385 21.9975 11.1153 21.9975C17.1967 21.9975 22.1438 17.0637 22.1438 10.9987C22.1438 4.93376 17.1992 0 11.1153 0ZM11.1153 19.2409C6.55798 19.2409 2.85329 15.5437 2.85329 11.0013C2.85329 6.45879 6.56049 2.75909 11.1153 2.75909C15.6701 2.75909 19.3773 6.45628 19.3773 10.9987C19.3773 15.5412 15.6701 19.2384 11.1153 19.2384V19.2409Z" fill="#A7A7A7"/>
<path d="M16.6979 5.65483C16.1181 5.09959 15.1795 5.09959 14.5997 5.65483L11.1152 8.99144L7.6334 5.65483C7.05355 5.09959 6.115 5.09959 5.53516 5.65483C4.95531 6.21007 4.95531 7.10879 5.53516 7.66403L9.01694 11.0006L5.53516 14.3372C4.95531 14.8925 4.95531 15.7912 5.53516 16.3464C5.82373 16.6228 6.204 16.7622 6.58428 16.7622C6.96455 16.7622 7.34482 16.6228 7.6334 16.3464L11.1152 13.0098L14.5997 16.3464C14.8882 16.6228 15.2685 16.7622 15.6488 16.7622C16.0291 16.7622 16.4093 16.6228 16.6979 16.3464C17.2778 15.7912 17.2778 14.8925 16.6979 14.3372L13.2134 11.0006L16.6979 7.66403C17.2778 7.10879 17.2778 6.21007 16.6979 5.65483Z" fill="#A7A7A7"/>
</g>
<defs>
<clipPath id="clip0_1_91">
<rect width="22.0596" height="22" fill="white" transform="translate(0.0867195)"/>
</clipPath>
</defs>
</svg>
