<svg width="31" height="30" viewBox="0 0 31 30" fill="none" xmlns="http://www.w3.org/2000/svg">
<g clip-path="url(#clip0_1_131)">
<path d="M29.9564 13.0138C31.1871 6.97442 29.1336 2.90364 27.979 1.20924C27.3636 0.309312 26.2989 -0.147683 25.2203 0.0421455C24.0449 0.253067 21.5489 0.998321 19.6752 2.48883C19.2535 2.8263 18.887 3.16378 18.5551 3.50125C23.9066 4.59804 28.2279 8.25401 29.9564 13.0138Z" fill="#A7A7A7"/>
<path d="M12.0696 3.45914C11.7515 3.14276 11.3989 2.81231 10.9979 2.49593C9.12419 1.00542 6.62822 0.253138 5.45284 0.0422169C4.36733 -0.147612 3.30257 0.316414 2.69414 1.20931C1.56023 2.86153 -0.410265 6.7706 0.62684 12.5569C2.48672 7.95879 6.79416 4.46453 12.0696 3.45914Z" fill="#A7A7A7"/>
<path d="M15.2572 5.2449C7.91446 5.21678 1.91308 10.7499 1.89234 17.5768C1.86468 24.4036 7.82458 29.9719 15.1742 30C22.5169 30.0281 28.5183 24.495 28.539 17.6752C28.5667 10.8484 22.6068 5.27303 15.2572 5.25193V5.2449ZM7.69321 16.7612C6.59388 16.7612 5.57752 17.2252 4.82389 18.083C4.42288 18.54 3.73147 18.5751 3.28206 18.1673C2.83265 17.7596 2.79808 17.0565 3.19909 16.5995C4.36065 15.2918 5.99927 14.5395 7.70013 14.5465C9.40098 14.5465 11.0396 15.3129 12.1873 16.6346C12.5884 17.0916 12.5469 17.7947 12.0975 18.2025C11.648 18.6103 10.9566 18.5681 10.5556 18.1111C9.80891 17.2533 8.79255 16.7753 7.69321 16.7682V16.7612ZM19.938 23.1029C18.7764 24.4106 17.1378 25.1629 15.4369 25.1558C13.7361 25.1488 12.0975 24.3895 10.9497 23.0677C10.5487 22.6107 10.5902 21.9077 11.0396 21.4999C11.489 21.0991 12.1804 21.1343 12.5814 21.5913C13.3282 22.449 14.3445 22.9271 15.4438 22.9341C16.5432 22.9412 17.5595 22.4701 18.3132 21.6124C18.7142 21.1554 19.4056 21.1202 19.855 21.528C20.3044 21.9358 20.339 22.6389 19.938 23.0958V23.1029ZM25.6351 18.1041C24.8884 17.2463 23.8721 16.7682 22.7727 16.7612C21.6803 16.7612 20.657 17.2252 19.9034 18.083C19.5024 18.54 18.811 18.5751 18.3616 18.1673C17.9122 17.7596 17.8776 17.0565 18.2786 16.5995C19.4402 15.2918 21.0788 14.5395 22.7796 14.5465C24.4805 14.5465 26.1122 15.3129 27.2668 16.6346C27.6679 17.0916 27.6264 17.7947 27.177 18.2025C26.7276 18.6103 26.0361 18.5681 25.6351 18.1111V18.1041Z" fill="#A7A7A7"/>
</g>
<defs>
<clipPath id="clip0_1_131">
<rect width="30" height="30" fill="white" transform="translate(0.33667)"/>
</clipPath>
</defs>
</svg>
